<?xml version="1.0" encoding="UTF-8" standalone="no"?>
<svg
   xmlns:dc="http://purl.org/dc/elements/1.1/"
   xmlns:cc="http://creativecommons.org/ns#"
   xmlns:rdf="http://www.w3.org/1999/02/22-rdf-syntax-ns#"
   xmlns:svg="http://www.w3.org/2000/svg"
   xmlns="http://www.w3.org/2000/svg"
   xmlns:sodipodi="http://sodipodi.sourceforge.net/DTD/sodipodi-0.dtd"
   xmlns:inkscape="http://www.inkscape.org/namespaces/inkscape"
   inkscape:export-ydpi="90.809998"
   inkscape:export-xdpi="90.809998"
   inkscape:export-filename="E:\Vg101工导project2\planetsvg.png"
   id="svg8"
   version="1.1"
   viewBox="0 0 125 125"
   height="125mm"
   width="125mm"
   sodipodi:docname="planetsvg.svg"
   inkscape:version="1.0 (4035a4fb49, 2020-05-01)">
  <sodipodi:namedview
     inkscape:document-rotation="0"
     pagecolor="#ffffff"
     bordercolor="#666666"
     borderopacity="1"
     objecttolerance="10"
     gridtolerance="10"
     guidetolerance="10"
     inkscape:pageopacity="0"
     inkscape:pageshadow="2"
     inkscape:window-width="1025"
     inkscape:window-height="480"
     id="namedview11"
     showgrid="false"
     inkscape:zoom="0.4356271"
     inkscape:cx="806.60451"
     inkscape:cy="303.39404"
     inkscape:window-x="0"
     inkscape:window-y="0"
     inkscape:window-maximized="0"
     inkscape:current-layer="svg8" />
  <defs
     id="defs2" />
  <metadata
     id="metadata5">
    <rdf:RDF>
      <cc:Work
         rdf:about="">
        <dc:format>image/svg+xml</dc:format>
        <dc:type
           rdf:resource="http://purl.org/dc/dcmitype/StillImage" />
        <dc:title />
      </cc:Work>
    </rdf:RDF>
  </metadata>
  <g
     id="layer1"
     transform="translate(-43.339087,-97.177914)"
     inkscape:export-xdpi="92.010002"
     inkscape:export-ydpi="92.010002">
    <g
       transform="rotate(-41.946077,184.68468,140.95427)"
       id="g857">
      <path
         id="path865"
         d="m 117.70469,162.54202 c -1.14797,-0.6052 -1.70704,-1.36857 -1.91369,-2.61301 l -0.11923,-0.71806 -3.00482,-0.10131 c -8.88592,-0.29961 -17.612796,-2.83864 -25.596028,-7.44701 l -1.610623,-0.92974 -0.461463,0.36299 c -1.006148,0.79143 -2.432335,0.62545 -3.223399,-0.37514 -0.372486,-0.47115 -0.433879,-0.72168 -0.415329,-1.69487 l 0.02177,-1.142 -1.235206,-0.96161 c -3.204396,-2.49463 -7.92299,-7.54217 -10.482509,-11.21328 -3.253439,-4.66639 -6.131337,-10.58337 -7.766102,-15.96715 -0.305298,-1.00544 -0.346649,-1.05288 -1.174977,-1.3479 -2.824188,-1.00587 -4.687113,-5.93093 -3.329165,-8.80139 0.451867,-0.95517 1.272956,-1.65911 1.935448,-1.6593 0.312466,-9e-5 0.329857,-0.20925 0.345269,-4.15241 0.03037,-7.769452 1.26212,-14.089889 4.097279,-21.024196 0.855535,-2.092492 2.953758,-6.247943 3.902214,-7.728192 0.351323,-0.548307 0.638769,-1.116697 0.638769,-1.263087 0,-0.146392 -0.235291,-0.38784 -0.522868,-0.536552 -1.040965,-0.538305 -1.469543,-1.881487 -0.949809,-2.976745 0.643406,-1.355879 2.253206,-1.717443 3.529677,-0.792773 l 0.710759,0.514873 1.369823,-1.583935 c 0.753398,-0.871164 1.594684,-1.851377 1.86952,-2.178251 l 0.499703,-0.594318 -1.176587,-1.247245 c -1.446813,-1.533697 -1.9143,-2.497867 -1.776254,-3.663443 0.49085,-4.144461 7.684019,-9.997916 14.27953,-11.619995 1.495863,-0.367888 4.000762,-0.320263 4.968271,0.09446 0.872817,0.374133 1.689045,1.437992 2.064434,2.690749 0.111053,0.370613 0.299293,0.711209 0.418307,0.756879 0.119014,0.04567 0.556501,-0.06723 0.972191,-0.250889 0.415692,-0.18366 0.991394,-0.392895 1.279341,-0.464969 0.74722,-0.187031 0.962484,-0.419927 0.963335,-1.042239 8.75e-4,-0.656451 0.766084,-1.866001 1.632012,-2.579774 1.4024,-1.155976 3.758637,-1.85469 5.528317,-1.639361 1.65031,0.200803 2.53319,0.730779 3.41664,2.050939 0.15329,0.229066 0.4765,0.233557 2.62257,0.03644 4.93873,-0.453623 8.58706,-0.30575 14.10615,0.571744 l 2.9165,0.463702 0.67528,-0.610077 c 1.12656,-1.017779 2.18545,-1.433411 3.62816,-1.424114 1.263,0.0081 1.85942,0.203369 2.93754,0.961563 0.6806,0.478635 1.35017,1.876503 1.35017,2.818769 0,0.424147 0.0983,0.851284 0.21854,0.949193 0.12021,0.09791 1.0982,0.570728 2.17333,1.050708 1.07512,0.47998 2.95632,1.43907 4.18044,2.131311 1.77718,1.005 2.3169,1.234859 2.67844,1.140703 1.2084,-0.314711 1.92946,-0.296157 2.51329,0.06467 0.75776,0.468322 1.09184,1.11548 1.05585,2.045325 -0.0288,0.744514 -0.0198,0.756085 1.66184,2.133268 3.81079,3.120868 7.77527,7.465372 10.72666,11.754885 1.47247,2.140077 4.33685,7.430641 5.30088,9.790837 0.12038,0.29474 0.3815,0.476308 0.83844,0.583005 1.9399,0.452974 2.81256,3.026113 1.50008,4.423183 l -0.38602,0.410894 0.45266,1.706176 c 1.35728,5.11589 2.39489,14.133559 1.90632,16.567419 -0.0965,0.48081 -0.29941,2.09369 -0.45086,3.58419 -0.15146,1.49049 -0.52122,3.85081 -0.82168,5.24514 -0.8037,3.72963 -0.80876,3.80712 -0.25722,3.94555 0.97935,0.2458 1.59413,1.84938 1.08584,2.8323 -0.47109,0.91099 -1.22482,1.32616 -2.19828,1.21087 l -0.8359,-0.099 -0.4864,1.25658 c -1.13773,2.93928 -3.67733,7.76955 -5.53265,10.523 -3.34389,4.96262 -8.95706,10.8252 -12.9538,13.52938 -0.45676,0.30904 -0.83048,0.64718 -0.83048,0.75141 0,0.10423 0.14887,0.43483 0.33082,0.73466 0.45321,0.74685 0.6009,1.56273 0.45681,2.52356 -0.10512,0.70103 -0.28018,0.96564 -1.30438,1.97172 -0.98431,0.96691 -1.57605,1.35547 -3.5239,2.314 -2.63075,1.29458 -6.83615,2.99348 -9.07222,3.665 -4.8345,1.45188 -7.25207,1.03315 -8.05338,-1.39487 l -0.20558,-0.6229 -0.89712,0.12933 c -0.49341,0.0711 -1.2905,0.17932 -1.77131,0.24044 -0.84971,0.108 -0.87546,0.12824 -0.91962,0.72304 -0.0931,1.25433 -0.24251,1.75208 -0.68287,2.27542 -0.94413,1.12204 -2.66081,1.54062 -3.81749,0.93083 z"
         style="fill:#868787;fill-opacity:1;stroke-width:0.174838" />
      <path
         id="path863"
         d="m 129.33143,159.57359 c 0,-0.80717 11.62733,-5.68231 14.55528,-6.10276 1.71491,-0.24627 0.72752,0.55473 -2.62892,2.13264 -1.98501,0.93318 -8.0488,3.28202 -9.81632,3.8024 -0.95909,0.28236 -2.11004,0.37385 -2.11004,0.16772 z m -10.29412,-11.66773 c -0.90124,-0.32604 -1.477,-1.0894 -1.36096,-1.80441 0.32793,-2.02081 4.14129,-3.68042 7.09794,-3.08909 0.71243,0.14248 1.58489,1.00769 1.58489,1.57171 0,1.29314 -1.69191,2.69644 -3.95909,3.28376 -1.2543,0.32493 -2.52987,0.33936 -3.36278,0.038 z m -18.81644,-2.46369 c -5.963385,-0.8304 -9.348473,-3.58338 -7.961758,-6.47505 0.968534,-2.01965 3.511319,-3.43751 7.881368,-4.39467 1.84431,-0.40396 8.00791,-0.46481 9.69649,-0.0957 4.66154,1.01889 7.25579,2.83949 7.25579,5.09201 0,3.97701 -8.71173,7.00973 -16.87189,5.87344 z m 37.41538,-1.08513 c -1.17835,-0.31491 -1.31128,-1.57078 -0.30597,-2.89077 0.60519,-0.79463 2.0651,-1.86363 3.24273,-2.37444 0.50338,-0.21835 2.03117,-0.28181 2.66778,-0.11082 0.49869,0.13395 0.74137,0.88264 0.56221,1.73449 -0.18677,0.88804 -1.73106,2.42677 -3.10708,3.0959 -0.95912,0.4664 -2.3968,0.72279 -3.05967,0.54564 z m -6.11934,-1.83982 c -0.50322,-0.28535 -0.60625,-0.4953 -0.60926,-1.24144 -0.004,-0.91231 0.61013,-1.52189 1.53244,-1.52189 0.87069,0 1.43944,0.56018 1.43157,1.40998 -0.003,0.33036 -0.1014,0.7255 -0.21854,0.87807 -0.49497,0.64467 -1.45918,0.8592 -2.13621,0.47528 z m -5.27317,-8.78386 c -2.78135,-0.86986 -2.78712,-3.34426 -0.0114,-4.89392 2.43878,-1.36156 5.96118,-1.08116 6.97241,0.55504 0.34558,0.55916 0.36211,0.69269 0.17323,1.3989 -0.58624,2.19187 -4.44359,3.78146 -7.13422,2.93998 z m -36.952988,-0.59757 c -0.839826,-0.44655 -1.200801,-1.4432 -0.893815,-2.46783 0.477616,-1.59414 2.689299,-3.15274 4.473796,-3.15274 1.102821,0 1.68722,0.26017 2.171307,0.96665 0.413232,0.60307 0.459709,1.04638 0.186167,1.77567 -0.898526,2.39556 -4.009244,3.90352 -5.937455,2.87825 z m 69.312148,-8.04381 c -1.0956,-0.6772 -1.2291,-2.37339 -0.31848,-4.0465 0.87383,-1.60551 2.14352,-2.36085 3.42699,-2.03872 0.58897,0.14782 1.01544,0.98639 1.00645,1.979 -0.0238,2.62123 -2.50756,5.09976 -4.11496,4.10622 z m -82.250127,-4.42439 c -2.552528,-1.27552 -4.550438,-4.11025 -6.017638,-8.53814 -2.149048,-6.48564 -1.539724,-14.359918 1.406224,-18.172607 1.35304,-1.751123 3.222089,-2.528639 5.094898,-2.119455 1.303931,0.284894 2.430631,1.011292 3.674543,2.369028 5.670238,6.189094 6.539327,20.578664 1.542297,25.535934 -1.607816,1.59502 -3.685196,1.93221 -5.700324,0.92524 z m -8.91407,-0.42423 c -2.593849,-1.12178 -3.549451,-5.11244 -1.46148,-6.10324 1.880973,-0.89258 4.434767,1.35993 4.433076,3.91009 -0.0013,2.01163 -1.253843,2.93603 -2.971596,2.19315 z m 77.615717,-1.37884 c -0.9871,-0.53679 -1.91732,-2.62486 -1.90463,-4.27535 0.003,-0.43932 0.1086,-1.27592 0.23383,-1.85914 0.79202,-3.68851 3.49623,-5.40095 5.47825,-3.46907 1.33289,1.29917 1.57432,5.07312 0.46871,7.32687 -1.0451,2.1304 -2.81365,3.072 -4.27616,2.27669 z m -21.6361,-7.5874 c -1.99377,-1.32277 -3.18762,-4.35181 -2.38328,-6.04684 0.66206,-1.39519 2.5348,-1.27644 4.05533,0.25716 1.09355,1.10294 1.6536,2.33454 1.74993,3.84826 0.081,1.27254 0.0667,1.33314 -0.4437,1.87951 -0.72271,0.77366 -1.86955,0.7975 -2.97828,0.0619 z m -8.36972,-3.33884 c -0.61926,-0.26014 -0.9872,-0.97169 -0.87141,-1.6852 0.13233,-0.81546 0.69453,-1.29199 1.52424,-1.29199 0.88144,0 1.39081,0.44746 1.50854,1.32519 0.0777,0.57931 0.0195,0.79583 -0.31698,1.17856 -0.45465,0.51719 -1.25261,0.72202 -1.84439,0.47344 z m -3.81292,-7.81665 c -1.62496,-0.363679 -2.60889,-0.842988 -3.47119,-1.690944 -1.40688,-1.383463 -1.77623,-2.288881 -1.758,-4.309568 0.0126,-1.403402 0.0869,-1.819655 0.47867,-2.68434 1.07052,-2.362577 3.23053,-4.56562 5.57095,-5.681915 4.3606,-2.079851 8.82352,-1.47165 11.09972,1.512655 0.75999,0.99641 0.98289,1.917956 0.89652,3.706512 -0.0613,1.269158 -0.16477,1.677567 -0.7088,2.797412 -1.14763,2.362288 -2.71066,3.890339 -5.28918,5.170798 -0.86545,0.429771 -2.12429,0.896318 -2.79742,1.036773 -1.15471,0.240937 -3.24994,0.315247 -4.02127,0.142617 z m 43.68999,-2.325425 c -0.97654,-0.394566 -1.49535,-1.800279 -1.05415,-2.856224 0.47696,-1.141506 2.13709,-1.711101 3.22601,-1.106846 1.41054,0.78273 1.42579,3.021718 0.0262,3.848469 -0.51573,0.304648 -1.58919,0.360616 -2.19807,0.114601 z M 95.412817,90.697697 c -1.176439,-0.496607 -2.098058,-2.523958 -2.098058,-4.615243 0,-1.039286 0.556648,-3.375717 1.058741,-4.443874 0.513946,-1.093372 1.671167,-2.418535 2.492823,-2.85459 1.023036,-0.542931 1.835035,-0.511143 2.685787,0.105139 2.46293,1.78414 2.03144,8.02143 -0.747141,10.80001 -1.234659,1.234658 -2.186273,1.517594 -3.392152,1.008558 z m 54.986623,-0.155804 c -2.97868,-0.681453 -6.31297,-2.259079 -9.4531,-4.472755 -1.86502,-1.314768 -5.51056,-4.905513 -6.46993,-6.372694 -0.37709,-0.576679 -0.74184,-1.09063 -0.81055,-1.142113 -0.27306,-0.204578 -1.70226,-3.467708 -1.96104,-4.477425 -0.59369,-2.316442 -0.14775,-4.248595 1.30781,-5.666349 0.85503,-0.832825 1.8166,-1.220962 3.66201,-1.478152 1.73014,-0.241127 5.62714,0.665425 8.30386,1.931715 1.14252,0.540501 3.42919,1.864958 4.1095,2.380258 3.57835,2.710428 5.4371,4.50405 7.14507,6.894709 1.93854,2.713398 2.8962,5.165448 2.89596,7.414958 -1.8e-4,2.352221 -0.78731,3.662457 -2.78975,4.644228 -0.9408,0.46126 -1.2351,0.515589 -2.96759,0.547827 -1.13762,0.02117 -2.35174,-0.06225 -2.97225,-0.204207 z M 123.12467,70.224089 c -0.60037,-0.167117 -1.31128,-1.052654 -1.31128,-1.633375 0,-1.844516 1.93195,-3.63385 4.09022,-3.788276 0.8651,-0.0619 1.17607,-0.008 1.64009,0.284497 0.57718,0.363775 0.91354,0.957764 0.91354,1.613251 0,0.920197 -1.13581,2.38268 -2.38411,3.069822 -0.70967,0.390643 -2.29773,0.635215 -2.94846,0.454081 z M 93.604149,69.563578 c -1.065014,-0.379729 -1.513258,-0.904445 -1.513258,-1.771427 0,-0.61712 0.110078,-0.858101 0.655644,-1.435323 1.579803,-1.67147 4.430601,-2.231878 6.356222,-1.2495 0.506746,0.258523 0.715917,0.503665 0.870768,1.020508 0.181705,0.606463 0.159775,0.758597 -0.202145,1.402543 -0.965824,1.718452 -4.12703,2.760631 -6.167231,2.033199 z m 14.571861,-7.460509 c -0.73108,-0.443264 -0.8184,-0.56205 -1.06285,-1.445888 -0.55743,-2.015392 1.78369,-3.677847 3.52589,-2.503778 0.73368,0.494429 1.02857,1.056832 1.02857,1.961682 0,0.90485 -0.29489,1.467253 -1.02857,1.961682 -0.7449,0.501985 -1.66234,0.511782 -2.46304,0.0263 z M 74.495958,59.417035 c -0.126605,-0.329925 0.433272,-1.177532 1.213475,-1.837104 0.284371,-0.240403 0.723084,-0.61646 0.974916,-0.835684 0.251832,-0.219224 1.205308,-0.894866 2.118838,-1.501427 4.217771,-2.800494 7.809852,-4.607241 9.347101,-4.701409 0.901508,-0.05523 0.974852,0.271943 0.256157,1.142649 -0.813363,0.985399 -5.574674,4.497165 -6.09733,4.497165 -0.08518,0 -0.181087,0.07113 -0.213142,0.158057 -0.08169,0.221561 -4.611161,2.554017 -5.565683,2.866058 -1.478413,0.483304 -1.912761,0.528503 -2.034332,0.211695 z M 126.53402,54.14492 c -1.32984,-0.199176 -2.44774,-0.477838 -2.44774,-0.610159 0,-0.08302 -0.11524,-0.150947 -0.2561,-0.150947 -0.38549,0 -0.66618,-0.632475 -0.45544,-1.02624 0.45126,-0.843206 3.31291,-1.392096 5.69571,-1.092491 2.7439,0.345007 3.76915,1.224088 2.51691,2.15808 -0.66957,0.499407 -3.67339,0.928436 -5.05334,0.721757 z m -22.02729,-0.505931 c -1.27302,-0.35723 -1.75071,-0.689235 -1.75071,-1.216786 0,-0.9566 2.13142,-1.579945 4.89547,-1.431705 2.15824,0.115748 3.03316,0.340272 3.6225,0.929615 0.39374,0.393739 0.40886,0.463862 0.17587,0.816097 -0.44052,0.666006 -1.75336,1.031136 -3.97321,1.105035 -1.45297,0.04837 -2.2767,-0.0077 -2.96992,-0.202256 z"
         style="fill:#282727;stroke-width:0.174838" />
      <path
         id="path861"
         d="m 129.79684,159.31717 c 0.31659,-0.31659 5.77453,-2.93078 6.70296,-3.21052 0.2404,-0.0724 0.67313,-0.23401 0.96161,-0.35905 1.84708,-0.80061 6.67989,-2.29115 6.85639,-2.11465 0.23064,0.23064 -3.17972,1.92899 -3.50228,1.74413 -0.11386,-0.0653 -0.14568,-0.0513 -0.0707,0.0311 0.17335,0.19048 -0.66176,0.60136 -3.235,1.59166 -1.12731,0.43384 -2.1426,0.73136 -2.2562,0.66115 -0.12229,-0.0756 -0.16027,-0.0528 -0.0931,0.0559 0.0624,0.10095 -0.0238,0.23806 -0.19153,0.30471 -1.36101,0.54079 -2.80452,1.00111 -4.04191,1.2889 -1.43481,0.33371 -1.45738,0.33384 -1.13021,0.007 z m 2.79824,-0.94301 c 0,-0.14424 -0.0656,-0.26226 -0.1457,-0.26226 -0.17461,0 -0.19211,0.24499 -0.0291,0.40796 0.16206,0.16206 0.17484,0.15141 0.17484,-0.1457 z m 5.74515,-2.67622 c -0.0538,-0.0538 -0.19491,-1.2e-4 -0.31351,0.11937 -0.17139,0.17268 -0.15131,0.19276 0.0979,0.0979 0.17243,-0.0657 0.26947,-0.16342 0.21564,-0.21725 z m -19.02549,-7.90861 c -0.77626,-0.19352 -1.52263,-0.92436 -1.52263,-1.49094 0,-0.21889 0.2557,-0.7312 0.56822,-1.13847 1.04206,-1.358 3.4272,-2.21573 5.61809,-2.02036 1.18828,0.10596 1.86019,0.50498 2.05086,1.21792 0.13811,0.51641 -0.28209,1.59038 -0.55601,1.42109 -0.0875,-0.0541 -0.11226,0.0238 -0.055,0.173 0.1233,0.32131 -0.20818,0.37072 -0.3542,0.0528 -0.0552,-0.1202 -0.0621,-0.0594 -0.0154,0.13521 0.0883,0.36758 -0.53778,0.78919 -2.04995,1.38039 -0.8506,0.33255 -2.84549,0.47841 -3.68403,0.26937 z m -18.56936,-2.45414 c -2.133635,-0.25551 -4.067141,-0.78762 -5.419982,-1.49161 -0.673127,-0.35028 -1.385162,-0.71979 -1.5823,-0.82113 -0.197138,-0.10134 -0.626459,-0.53339 -0.954044,-0.96012 -0.516985,-0.67344 -0.595575,-0.90714 -0.595335,-1.77038 1.75e-4,-0.80467 0.09836,-1.14506 0.514029,-1.78304 2.788034,-4.27907 14.866532,-5.72262 21.199112,-2.53358 2.68269,1.35098 3.57114,3.0741 2.57662,4.99729 -0.66793,1.29163 -3.20136,2.90178 -5.59748,3.55753 -2.85616,0.78166 -7.35408,1.13874 -10.14062,0.80504 z m 31.03379,-2.90043 c -0.43661,-0.12649 -0.9155,-0.91896 -0.8098,-1.34009 0.28026,-1.11666 1.61369,-1.5481 2.35286,-0.76129 0.42814,0.45574 0.4699,0.78064 0.18164,1.41331 -0.23674,0.51959 -0.67914,0.72988 -0.87757,0.41715 -0.10475,-0.16509 -0.14313,-0.14354 -0.1451,0.0815 -0.003,0.29865 -0.16953,0.34369 -0.70203,0.18942 z m -5.60018,-8.8827 c -1.08957,-0.35129 -1.8068,-1.12709 -1.77691,-1.922 0.0733,-1.94878 2.35913,-3.40827 5.34616,-3.41341 2.52016,-0.004 3.54341,0.75283 3.44898,2.55217 -0.0231,0.44084 -1.34307,1.99154 -1.69517,1.99154 -0.13607,0 -0.2474,0.0643 -0.2474,0.14291 0,0.24728 -1.88407,0.74931 -3.10873,0.82835 -0.75017,0.0484 -1.46112,-0.0165 -1.96693,-0.17956 z m 5.42534,-1.14137 c 0,-0.0962 -0.0833,-0.17484 -0.18516,-0.17484 -0.10184,0 -0.13653,0.0787 -0.0771,0.17484 0.0594,0.0962 0.14275,0.17484 0.18516,0.17484 0.0424,0 0.0771,-0.0787 0.0771,-0.17484 z M 79.807122,120.50691 c -0.169044,-0.0984 -0.405076,-0.12277 -0.524515,-0.0541 -0.119439,0.0687 -0.157391,0.0591 -0.08434,-0.0214 0.07305,-0.0805 -0.216079,-0.50613 -0.642517,-0.94594 -1.596246,-1.64628 -2.033109,-2.22895 -2.719608,-3.62729 -0.387508,-0.78933 -0.70456,-1.51193 -0.70456,-1.60578 0,-0.0939 -0.07188,-0.19687 -0.159727,-0.22893 -0.08785,-0.032 -0.420882,-0.96306 -0.740076,-2.06891 -0.319192,-1.10586 -0.628632,-2.04998 -0.687643,-2.09806 -0.204722,-0.1668 -0.51058,-3.6953 -0.504459,-5.81964 0.0091,-3.16814 0.488184,-5.98303 1.307142,-7.680649 0.239298,-0.496039 0.435087,-0.971337 0.435087,-1.056215 0,-0.239018 0.949613,-1.556816 1.542491,-2.140548 1.192837,-1.174437 1.330041,-1.183491 2.691246,-0.177566 4.022611,2.972689 6.77678,11.126468 6.128548,18.143688 -0.396932,4.29685 -1.98573,7.98827 -3.964546,9.21124 -0.647244,0.40002 -0.91965,0.43377 -1.372525,0.17004 z m -12.534649,-0.54568 c -1.212485,-0.59989 -2.281505,-2.3071 -2.281505,-3.64353 0,-0.57093 0.388578,-1.61221 0.699353,-1.87407 0.144241,-0.12154 0.474464,-0.19478 0.733828,-0.16276 0.259365,0.032 0.431745,-0.006 0.383068,-0.085 -0.136734,-0.22124 0.351135,-0.16975 1.00352,0.10593 0.714924,0.30209 1.723216,1.35638 2.127945,2.22502 0.327646,0.70321 0.390157,1.97983 0.130398,2.66305 -0.366609,0.96425 -1.67649,1.32554 -2.796607,0.77135 z m 78.424567,-1.02158 c -1.5188,-0.44917 -2.53014,-2.63471 -2.32906,-5.0332 0.1846,-2.20188 1.26189,-4.33166 2.49235,-4.92732 1.033,-0.50007 1.6737,-0.44424 2.5471,0.22192 2.31898,1.76874 1.78585,7.59236 -0.85061,9.29151 -0.83456,0.53786 -1.23077,0.63311 -1.85978,0.44709 z m 2.83283,-2.00677 c -0.0538,-0.0538 -0.1516,0.0432 -0.21725,0.21563 -0.0949,0.24918 -0.0748,0.26926 0.0979,0.0979 0.11949,-0.1186 0.17321,-0.25968 0.11938,-0.31351 z m -73.111836,-0.34505 c -0.05535,-0.14424 -0.02443,-0.26226 0.06871,-0.26226 0.09314,0 0.169352,0.11802 0.169352,0.26226 0,0.14424 -0.03092,0.26226 -0.06871,0.26226 -0.03779,0 -0.114,-0.11802 -0.169352,-0.26226 z M 70.509613,110.782 c -0.09488,-0.24918 -0.0748,-0.26926 0.09787,-0.0979 0.119488,0.1186 0.173207,0.25968 0.119377,0.31351 -0.05383,0.0538 -0.151593,-0.0432 -0.21725,-0.21563 z M 110.66398,99.80632 c -1.32795,-0.374481 -3.16378,-1.45435 -2.90775,-1.710385 0.055,-0.05503 -0.0701,-0.191131 -0.27816,-0.302457 -0.22701,-0.121492 -0.33864,-0.305529 -0.27924,-0.460343 0.0561,-0.146161 0.0235,-0.211262 -0.0753,-0.150236 -0.37376,0.230998 -0.92914,-1.521879 -0.94239,-2.974362 -0.0151,-1.658178 0.29777,-2.619243 1.39751,-4.2925 1.1497,-1.749269 3.42904,-3.703352 3.94663,-3.383464 0.11945,0.07383 0.15416,0.04794 0.0852,-0.06357 -0.14741,-0.2385 1.65245,-1.134516 2.32836,-1.159123 0.27329,-0.0099 0.46706,-0.06672 0.4306,-0.126162 -0.14372,-0.234267 2.07623,-0.546177 3.28822,-0.462003 2.4623,0.171008 4.69722,1.344017 5.47648,2.874353 0.18708,0.367386 0.39206,0.70757 0.45551,0.755969 0.0635,0.0484 0.21649,0.577594 0.34008,1.175991 0.18446,0.893072 0.18333,1.253195 -0.006,2.010065 -0.96845,3.86469 -3.48417,6.508541 -7.55326,7.937947 -1.62803,0.5719 -4.30084,0.7266 -5.70623,0.330283 z m 44.26442,-2.25343 c -0.75894,-0.34376 -1.17459,-1.397634 -0.90179,-2.286503 0.40281,-1.312479 1.7023,-1.844685 3.00026,-1.22876 1.04126,0.494107 1.30749,2.15698 0.49155,3.070172 -0.57797,0.646861 -1.71366,0.842029 -2.59002,0.445091 z M 73.033526,93.596603 c 0,-0.09616 0.08332,-0.174838 0.185156,-0.174838 0.101837,0 0.136532,0.07868 0.0771,0.174838 -0.05943,0.09616 -0.142751,0.174839 -0.185157,0.174839 -0.04241,0 -0.0771,-0.07868 -0.0771,-0.174839 z m 77.617464,-3.1398 c -1.22577,-0.220868 -3.94319,-1.196782 -5.4967,-1.974043 -2.8784,-1.440133 -5.35714,-3.270959 -7.96856,-5.885657 -1.28305,-1.284657 -3.48334,-3.992534 -3.48334,-4.286911 0,-0.05175 -0.23065,-0.468996 -0.51256,-0.927207 -0.2819,-0.458209 -0.73254,-1.423187 -1.00141,-2.144394 -0.40974,-1.099056 -0.48949,-1.585708 -0.49277,-3.006814 -0.003,-1.166524 0.0673,-1.766567 0.22434,-1.92322 0.29965,-0.298918 4.69797,-0.292286 5.80368,0.0087 1.71038,0.465666 3.14708,0.970908 3.14708,1.106729 0,0.07862 0.11587,0.142951 0.25748,0.142951 0.36325,0 2.13467,0.858797 2.37922,1.153469 0.11194,0.134881 0.28564,0.245237 0.386,0.245237 0.21779,0 2.6887,1.522736 3.10334,1.91248 0.15973,0.150149 0.43994,0.392096 0.62267,0.537659 0.18273,0.145563 0.6772,0.538949 1.09882,0.874191 0.90848,0.72236 2.98601,2.824781 3.23068,3.26938 0.0945,0.171821 0.30049,0.404581 0.45764,0.517249 0.47785,0.342587 1.63817,2.149567 2.50688,3.903976 1.30106,2.627567 1.73898,5.669818 0.90594,6.293652 -0.40422,0.302709 -3.83001,0.423689 -5.16843,0.182522 z m 5.78036,-9.623389 c 0,-0.09616 0.0833,-0.174839 0.18516,-0.174839 0.10184,0 0.13653,0.07868 0.0771,0.174839 -0.0594,0.09616 -0.14275,0.174838 -0.18516,0.174838 -0.0424,0 -0.0771,-0.07868 -0.0771,-0.174838 z M 93.926693,69.488948 c -1.160716,-0.298162 -1.815582,-1.128554 -1.592126,-2.01887 0.170299,-0.678523 1.153054,-1.614782 2.204059,-2.099781 0.791472,-0.365234 1.224551,-0.443591 2.447735,-0.442876 1.690315,0.001 2.199754,0.191448 2.671187,0.998653 0.627442,1.074337 -0.12553,2.213762 -2.042343,3.09053 -0.988794,0.452284 -2.8425,0.689667 -3.688512,0.472344 z m 40.442267,-1.013643 c 0.12621,-0.05051 0.27701,-0.0443 0.3351,0.01379 0.0581,0.0581 -0.0452,0.09942 -0.22947,0.09183 -0.20368,-0.0084 -0.24511,-0.04982 -0.10563,-0.10563 z m 7.15744,0.0036 c 0.1202,-0.0485 0.31689,-0.0485 0.43709,0 0.1202,0.0485 0.0219,0.08819 -0.21855,0.08819 -0.2404,0 -0.33874,-0.03968 -0.21854,-0.08819 z m -32.96789,-6.362689 c -0.89049,-0.357168 -1.43422,-1.299446 -1.33357,-2.311098 0.076,-0.763593 0.42123,-1.248887 1.16052,-1.631189 0.54404,-0.281337 1.71377,-0.328787 1.71377,-0.06952 0,0.09616 0.0983,0.155169 0.21855,0.131129 0.1202,-0.02404 0.20671,0.09938 0.19226,0.274277 -0.0177,0.213605 0.0583,0.28551 0.23153,0.21905 0.75613,-0.290154 0.99952,1.210589 0.39788,2.453397 -0.48111,0.99385 -1.50649,1.364901 -2.58094,0.933954 z m -33.834881,-2.72966 c -0.06411,-0.06411 -0.116559,-0.187444 -0.116559,-0.274081 0,-0.20338 2.044402,-2.231933 2.249372,-2.231933 0.08555,0 0.260117,-0.125999 0.387924,-0.279998 0.215922,-0.26017 1.997441,-1.468384 2.165142,-1.468384 0.04126,0 0.268043,-0.178892 0.503966,-0.397538 0.235923,-0.218646 0.771047,-0.579905 1.189166,-0.802799 0.418118,-0.222893 1.310956,-0.711198 1.984083,-1.085122 1.456715,-0.80921 2.885423,-1.497481 3.846441,-1.852999 0.914274,-0.338225 1.835801,-0.417111 1.835801,-0.157152 0,0.265245 -0.948382,1.258296 -1.927415,2.018195 -0.430418,0.334079 -0.821916,0.651468 -0.869996,0.705309 -0.19865,0.22245 -2.41142,1.726257 -3.059669,2.079364 -0.384644,0.209518 -1.210755,0.697417 -1.835801,1.084219 -1.43256,0.886519 -3.798826,2.013585 -5.136794,2.446685 -1.191386,0.38565 -1.068164,0.363732 -1.215661,0.216234 z m 51.256361,-5.491523 c -1.42678,-0.209394 -2.3184,-0.667579 -2.38323,-1.224699 -0.0449,-0.386129 0.055,-0.493114 0.69935,-0.748453 1.43221,-0.56757 2.93399,-0.7227 4.71588,-0.487139 1.80245,0.238279 2.82698,0.659853 2.90708,1.196207 0.0772,0.516703 -0.58466,0.865898 -2.23415,1.1788 -1.5577,0.295492 -2.17567,0.309717 -3.70493,0.08528 z m -20.90086,-0.338341 c -1.10864,-0.16195 -2.04234,-0.675954 -2.11364,-1.163566 -0.0408,-0.279329 0.13717,-0.454156 0.78677,-0.772682 0.75811,-0.37173 1.07704,-0.412178 3.2873,-0.416907 2.2669,-0.0048 2.51232,0.02706 3.32192,0.431858 0.48081,0.240403 0.89377,0.555112 0.91769,0.699353 0.0666,0.401526 -0.18843,0.68564 -0.66307,0.738734 -0.2362,0.02642 -0.48039,0.118294 -0.54264,0.204162 -0.28213,0.389157 -3.14542,0.549137 -4.99433,0.279048 z"
         style="fill:#4e4e4e;fill-opacity:1;stroke-width:0.174838" />
      <path
         id="path859"
         d="m 102.74628,143.06291 c -2.09774,-0.14239 -4.341939,-0.62498 -5.847338,-1.25741 -1.725017,-0.72469 -3.324162,-2.06348 -3.711656,-3.10735 -0.207584,-0.55921 -0.190965,-0.60166 0.488626,-1.24814 0.822683,-0.7826 1.567174,-1.185 3.534213,-1.91027 5.819645,-2.14577 14.340015,-1.53565 18.177685,1.30166 0.72754,0.5379 1.53056,1.83203 1.52747,2.46166 -0.002,0.48628 -0.13784,0.61845 -1.40279,1.36873 -0.77008,0.45677 -1.4649,0.83048 -1.54404,0.83048 -0.0791,0 -0.37887,0.11722 -0.66606,0.26049 -0.94562,0.47174 -3.25289,0.97359 -5.6509,1.22912 -1.29817,0.13833 -2.47833,0.24176 -2.62257,0.22984 -0.14424,-0.0119 -1.17143,-0.0834 -2.28264,-0.15881 z M 79.587625,120.1059 c -1.752916,-1.18749 -2.661692,-2.34689 -4.014153,-5.12117 -1.104839,-2.26634 -1.576066,-3.82281 -2.113346,-6.98041 -0.409762,-2.40818 -0.273503,-7.36192 0.259242,-9.424828 0.511012,-1.978745 1.738713,-4.39374 2.668413,-5.248999 1.381915,-1.271267 1.26068,-1.236872 2.210786,-0.627192 2.656806,1.704868 4.913884,5.692295 6.047799,10.684239 1.339855,5.89858 0.29492,12.95493 -2.354632,15.90062 -0.626536,0.69656 -1.502696,1.40414 -1.742499,1.40721 -0.04936,7e-4 -0.482088,-0.26463 -0.96161,-0.58947 z M 150.31202,90.361581 c -4.50234,-1.000058 -9.06714,-3.700233 -13.12629,-7.764478 -1.2959,-1.29752 -3.48334,-3.993417 -3.48334,-4.293013 0,-0.05511 -0.21114,-0.433013 -0.46919,-0.839786 -0.86094,-1.357121 -1.47117,-3.240182 -1.57115,-4.848287 -0.0875,-1.408157 0.10062,-2.493624 0.41924,-2.418451 0.0742,0.01751 0.64637,-0.028 1.27142,-0.101146 1.14702,-0.134226 3.44633,0.08548 4.80805,0.459426 1.01086,0.277596 4.0636,1.521329 4.98289,2.030106 2.67059,1.478027 5.31383,3.488259 7.44973,5.665657 1.3743,1.400993 3.39024,3.961661 3.39024,4.306311 0,0.09327 0.0605,0.195799 0.13435,0.227854 0.19484,0.08452 1.17123,2.170486 1.54127,3.292786 0.38753,1.17532 0.45643,3.880083 0.10776,4.230181 -0.3349,0.336265 -4.01835,0.371945 -5.45498,0.05284 z"
         style="fill:#5f5f5f;fill-opacity:0.953975;stroke-width:0.174838" />
    </g>
  </g>
</svg>
